Coordinates
version=1
nRows=14
nColumns=33
inDegrees=yes

Units are S.I. units (second, meters, Newtons, ...)
Angles are in degrees.

endheader
time	ground_thorax_rot_x	ground_thorax_rot_y	ground_thorax_rot_z	ground_thorax_tx	ground_thorax_ty	ground_thorax_tz	clav_prot_r	clav_elev_r	scapula_abduction_r	scapula_elevation_r	scapula_upward_rot_r	scapula_winging_r	shoulder_elv_r	plane_of_elev_r	axial_rot_r	elbow_flexion_r	pro_sup_r	wrist_flex_r	wrist_dev_r	clav_prot_l	clav_elev_l	scapula_abduction_l	scapula_elevation_l	scapula_upward_rot_l	scapula_winging_l	shoulder_elv_l	plane_of_elev_l	axial_rot_l	elbow_flexion_l	pro_sup_l	wrist_flex_l	wrist_dev_l
      2.58000000	     -3.65465406	      3.69256621	      9.95492616	     -0.10071088	      1.02601180	      0.00976928	     17.51672028	    -12.18458864	     42.70221988	    -12.30234838	     22.25981750	    -12.89483907	     -1.36405595	    -55.05572942	    120.98928181	    -37.08503360	   -156.79510853	      7.21038867	      3.12634299	     23.50741957	    -11.38282319	    -35.06390366	     -4.77016252	    -22.85534149	     11.03540544	     59.60219381	      2.73463337	     16.03884516	     11.69871929	     14.94767241	     11.34960731	     -7.72039947
      2.59000000	     -3.94660592	      3.73191344	     10.03444933	     -0.10091533	      1.02654256	      0.00906486	     17.00563307	    -13.36984981	     41.23719281	    -13.09389663	     21.35961890	    -11.55978329	     -1.20325134	    -55.71630278	    121.91263960	    -37.77812025	   -163.35027770	      8.26711167	      3.32688212	     23.22681786	    -11.25035818	    -34.59602096	     -5.01372480	    -23.11021611	     10.78093289	     59.78406915	      2.88477184	     15.62057333	     11.32437233	     13.51617800	      9.13733222	     -8.87262820
      2.60000000	     -3.88264673	      3.70893290	      9.98241076	     -0.10126417	      1.02624582	      0.00911928	     16.94669479	    -13.22250897	     40.84632636	    -12.84139111	     20.89170068	    -11.52949180	     -1.33909879	    -55.64583389	    121.62237197	    -38.51976769	   -163.53805687	      8.46667383	      3.18376781	     23.12149406	    -11.29796149	    -34.41406727	     -4.99250447	    -23.14115202	     10.65942934	     59.85548229	      2.64196155	     16.19106158	     11.77490057	     13.32086905	      9.07902230	     -8.93063201
      2.61000000	     -3.77778448	      3.70013663	     10.20354051	     -0.10168737	      1.02595138	      0.00905501	     16.85656591	    -13.12930324	     40.36326324	    -12.61709103	     20.36058600	    -11.42732935	     -1.64389760	    -55.86110704	    121.41211545	    -39.23458881	   -163.82269665	      8.74045099	      3.07364607	     22.97999920	    -11.36676340	    -34.16045639	     -5.01408282	    -23.30117968	     10.48435678	     59.74822608	      2.37453513	     16.77878374	     12.19065817	     13.09461061	      9.02671210	     -9.01577053
      2.62000000	     -3.73850403	      3.66726587	     10.24383658	     -0.10209660	      1.02567447	      0.00906444	     16.77164352	    -13.06948911	     39.92409041	    -12.43516631	     19.88544411	    -11.31554739	     -1.94117420	    -55.99560352	    121.19498448	    -40.06113777	   -164.19946293	      9.09305491	      2.96230992	     22.84371224	    -11.38106839	    -33.92572998	     -5.05304888	    -23.39878903	     10.33615064	     59.78352945	      2.11616766	     17.33148834	     12.56953939	     12.83909631	      8.97817401	     -9.11563977
      2.63000000	     -4.01062432	      3.70420422	     10.36617973	     -0.10263376	      1.02648191	      0.00859178	     16.55067200	    -14.23243986	     39.05712165	    -13.25132698	     19.18652579	    -10.25283814	     -2.40595916	    -56.80522727	    120.80028872	    -40.64031037	   -167.71470075	     10.51219698	      2.05894430	     22.68962099	    -11.46660125	    -33.63689930	     -5.15111635	    -23.75278539	     10.12507206	     60.18920074	      1.82749281	     17.64278084	     12.79554823	     11.41949965	      9.23400134	     -9.48459888
      2.64000000	     -3.87655381	      3.76714739	     10.38351158	     -0.10300560	      1.02596167	      0.00867111	     16.40376511	    -13.91433716	     38.52757286	    -12.83837547	     18.69350370	    -10.26498116	     -2.68370297	    -56.84718640	    120.64511234	    -41.51394008	   -167.98196092	     10.77134097	      1.97680153	     22.53869860	    -11.39627835	    -33.39249443	     -5.23661740	    -23.79305479	      9.99975938	     60.05532843	      1.73836428	     18.10247552	     13.13208864	     11.20948035	      9.19081155	     -9.52874556
      2.65000000	     -3.77233170	      3.78930959	     10.58775894	     -0.10347994	      1.02562349	      0.00867666	     16.27560528	    -13.73831149	     37.97913216	    -12.52767872	     18.13683622	    -10.18256742	     -3.06280132	    -57.03004849	    120.45252803	    -42.21908882	   -168.31060926	     11.08104304	      1.82240466	     22.36057141	    -11.35078859	    -33.09351413	     -5.34648642	    -23.92851253	      9.83005131	     59.87392538	      1.52036972	     18.63662608	     13.47365775	     10.91386852	      9.20329944	     -9.59045309
      2.66000000	     -3.70076780	      3.80224386	     10.69741561	     -0.10392653	      1.02536068	      0.00868835	     16.16928287	    -13.64607051	     37.45869194	    -12.28508521	     17.57526117	    -10.05971052	     -3.45251948	    -57.23264680	    120.21270599	    -43.00146521	   -168.71093884	     11.48992731	      1.57666831	     22.18284859	    -11.28835353	    -32.79798822	     -5.46842479	    -24.05827084	      9.66784179	     59.77885048	      1.27678724	     19.14458058	     13.87348260	     10.53347022	      9.27599291	     -9.67374519
      2.67000000	     -3.63265315	      3.81853608	     10.86888169	     -0.10440254	      1.02519201	      0.00866796	     16.06827883	    -13.63100402	     36.91956841	    -12.09549941	     16.97463500	     -9.88287488	     -3.89895242	    -57.53571350	    119.94346111	    -43.73349100	   -169.18640904	     11.97092987	      1.22750804	     21.99441834	    -11.22888833	    -32.48062292	     -5.61284737	    -24.24007624	      9.48865158	     59.66140357	      0.99372866	     19.60724851	     14.30120978	     10.06022897	      9.42797848	     -9.76801176
      2.68000000	     -3.59674136	      3.81364544	     10.99358416	     -0.10489219	      1.02506240	      0.00868534	     15.97140760	    -13.65466480	     36.39426900	    -11.94024749	     16.38539324	     -9.68507299	     -4.38444919	    -57.84151447	    119.68252800	    -44.48765849	   -169.69612297	     12.50953280	      0.80278939	     21.81359164	    -11.14312319	    -32.17889999	     -5.78401235	    -24.43108409	      9.32462976	     59.61120335	      0.67018118	     19.98816312	     14.78455893	      9.52203735	      9.63904130	     -9.87445529
      2.69000000	     -3.99666797	      4.07515781	     10.82793213	     -0.10530011	      1.02584285	      0.00845008	     15.51069898	    -14.70282199	     35.24805643	    -12.69640724	     15.80633004	     -8.54795363	     -5.33108837	    -58.46206517	    119.12621108	    -44.98161933	   -173.30761055	     14.53239909	     -1.60078806	     21.70076268	    -10.98446883	    -32.00108917	     -5.99276179	    -24.57311825	      9.25301395	     60.05281273	      0.43430613	     19.41961919	     15.01926939	      6.47523355	     10.98067358	     -9.74314356
      2.70000000	     -3.88150012	      4.04327236	     11.13395860	     -0.10594434	      1.02555771	      0.00847080	     15.39126023	    -14.48604077	     34.72532192	    -12.33793729	     15.25215943	     -8.50035199	     -5.79789121	    -58.79038057	    119.12629219	    -45.50909936	   -173.43256324	     14.73678140	     -1.62274818	     21.55857559	    -10.87229597	    -31.76053229	     -6.25118206	    -24.90294612	      9.12059953	     59.82771319	      0.05395055	     19.77169930	     15.64746942	      6.24052737	     10.92697435	     -9.85530083
      2.71000000	     -3.77701294	      4.04703301	     11.20322754	     -0.10646101	      1.02531152	      0.00853911	     15.30309327	    -14.33114607	     34.24004121	    -12.02482660	     14.68061922	     -8.43022016	     -6.18961186	    -59.04096474	    118.98856235	    -46.18545829	   -173.58086549	     15.04293232	     -1.77066336	     21.41536665	    -10.74782139	    -31.52353149	     -6.49503150	    -25.17856333	      8.99739859	     59.72941665	     -0.29650704	     20.04871902	     16.44143060	      5.94282947	     10.96770793	    -10.00786941
